<svg width="12" height="12" viewBox="0 0 12 12" fill="none" xmlns="http://www.w3.org/2000/svg">
<path fill-rule="evenodd" clip-rule="evenodd" d="M0.15976 0.15976C0.372773 -0.0532533 0.718136 -0.0532533 0.931149 0.15976L11.8402 11.0689C12.0533 11.2819 12.0533 11.6272 11.8402 11.8402C11.6272 12.0533 11.2819 12.0533 11.0689 11.8402L0.15976 0.931149C-0.0532533 0.718136 -0.0532533 0.372773 0.15976 0.15976Z" fill="#505050"/>
<path fill-rule="evenodd" clip-rule="evenodd" d="M11.8402 0.15976C11.6272 -0.0532533 11.2819 -0.0532533 11.0689 0.15976L0.159759 11.0689C-0.0532539 11.2819 -0.0532539 11.6272 0.159759 11.8402C0.372772 12.0533 0.718135 12.0533 0.931148 11.8402L11.8402 0.931149C12.0533 0.718136 12.0533 0.372773 11.8402 0.15976Z" fill="#505050"/>
</svg>
