<svg width="234" height="46" viewBox="0 0 234 46" fill="none" xmlns="http://www.w3.org/2000/svg">
<path d="M68.5554 45.0689C67.6806 45.0689 67.0076 44.9183 66.5365 44.6139C66.0655 44.3094 65.7546 43.8191 65.5976 43.1398L67.3569 42.9347C67.4274 43.284 67.562 43.5403 67.7575 43.7102C67.953 43.8768 68.2221 43.9633 68.5682 43.9633C68.9143 43.9633 69.1867 43.8704 69.3694 43.6813C69.552 43.4923 69.6418 43.2231 69.6418 42.8706L69.6354 38.2144H71.4075V42.8385C71.4075 43.5435 71.1575 44.0915 70.6576 44.4857C70.1577 44.8798 69.4559 45.0753 68.5586 45.0753L68.5554 45.0689Z" fill="#505050"/>
<path d="M87.3376 43.8768V44.9727H80.4414V38.2079H87.0909V39.3039H82.2135V41.0023H86.7256V42.0982H82.2135V43.88H87.3376V43.8768Z" fill="#505050"/>
<path d="M100.646 40.9671L99.483 44.9696H97.384L95.2049 38.2047H96.9995L98.1755 42.3482C98.2268 42.5245 98.2845 42.7264 98.3454 42.9571C98.4063 43.1878 98.4575 43.4121 98.4992 43.6301C98.5376 43.4794 98.5761 43.332 98.6114 43.191C98.6466 43.05 98.6819 42.909 98.7171 42.768C98.7524 42.6302 98.7908 42.4892 98.8325 42.3514L100.028 38.2047H102.008L103.191 42.204C103.229 42.3386 103.28 42.5341 103.338 42.7904C103.396 43.0468 103.45 43.3256 103.502 43.6301C103.553 43.4442 103.601 43.2807 103.643 43.1365C103.684 42.9955 103.726 42.8513 103.767 42.7103C103.809 42.5693 103.854 42.4059 103.902 42.2232L104.988 38.2047H106.783L104.597 44.9696H102.498L101.351 41.0568C101.284 40.8261 101.22 40.5921 101.159 40.3518C101.098 40.1114 101.044 39.8647 100.996 39.6115C100.964 39.7493 100.922 39.9095 100.877 40.0954C100.832 40.2813 100.784 40.4543 100.742 40.6145C100.701 40.7748 100.669 40.8901 100.649 40.9639L100.646 40.9671Z" fill="#505050"/>
<path d="M121.879 43.8768V44.9727H114.983V38.2079H121.632V39.3039H116.755V41.0023H121.267V42.0982H116.755V43.88H121.879V43.8768Z" fill="#505050"/>
<path d="M136.864 43.8768V44.9727H130.557V38.2079H132.326V43.8768H136.864Z" fill="#505050"/>
<path d="M147.208 42.4027V44.9696H145.44V38.2047H149.663C150.673 38.2047 151.448 38.3778 151.996 38.7271C152.544 39.0731 152.82 39.5731 152.82 40.2236C152.82 40.6979 152.653 41.1048 152.317 41.4509C151.98 41.797 151.525 42.0213 150.955 42.1303L153.239 44.9728H151.246L149.285 42.4059H147.208V42.4027ZM151.038 40.2813C151.038 39.9576 150.907 39.7141 150.647 39.5506C150.387 39.3872 149.996 39.3071 149.477 39.3071H147.208V41.3035H149.525C150.022 41.3035 150.397 41.2138 150.653 41.0343C150.91 40.8549 151.038 40.6049 151.038 40.2813Z" fill="#505050"/>
<path d="M165.394 42.1976V44.9727H163.628V42.1976L160.616 38.2079H162.471L164.5 41.0696L166.551 38.2079H168.406L165.394 42.1976Z" fill="#505050"/>
<path d="M63.0466 23.169H52.103V4.45119C52.103 1.02551 54.9038 1.02552 54.9038 1.02552V0.451904H44.4024V1.02552C44.4024 1.02552 47.2032 1.02551 47.2032 4.45119H47.216V20.6535H47.2032C47.2032 24.0791 44.4024 24.0791 44.4024 24.0791V24.6527H71.2502V18.6025H70.6766C70.6766 18.6025 69.6576 23.169 63.0498 23.169H63.0466Z" fill="#505050"/>
<path d="M106.852 0.455078V1.0287C106.852 1.0287 109.653 1.0287 109.653 4.45437H109.666V20.6566H109.653C109.653 24.0823 106.852 24.0823 106.852 24.0823V24.6559H133.7V18.6057H133.127C133.127 18.6057 132.108 23.1722 125.5 23.1722H114.556V13.299H126.647V11.8153H114.556V1.93879H125.5C132.111 1.93879 133.127 6.50529 133.127 6.50529H133.7V0.455078H106.852Z" fill="#505050"/>
<path d="M36.1125 20.6535H36.1061V4.45119C36.1061 1.02551 38.9069 1.02552 38.9069 1.02552V0.451904H28.4056V1.02552C28.4056 1.02552 31.2063 1.02551 31.2063 4.45119H31.2192V20.6535H31.2063C31.2063 24.0791 28.4056 24.0791 28.4056 24.0791V24.6527H38.9133V24.0791C38.9133 24.0791 36.1125 24.0791 36.1125 20.6535Z" fill="#505050"/>
<path d="M97.1143 0.458286V1.0255C97.1143 1.0255 99.1653 1.39723 98.3737 3.26548L88.2377 21.0893L76.9 3.1405L76.9096 3.1341C75.8264 1.16009 78.6336 1.0255 78.6336 1.0255V0.458286H68.4399V1.0255C68.4399 1.0255 69.4686 0.743494 71.135 3.04437L84.8248 24.6015H90.5386L89.1222 22.4896L99.3992 4.43194C101.511 0.621716 103.19 1.02229 103.19 1.02229V0.455078H97.1175L97.1143 0.458286Z" fill="#505050"/>
<path d="M165.939 21.6819H165.935L160.597 16.3399C156.882 16.7341 155.075 15.417 154.566 14.9588C158.036 14.8146 160.526 14.0391 162.18 12.8534C164.016 11.5395 164.827 9.72572 164.827 7.71967C164.827 3.70756 161.577 0.45813 153.405 0.45813H139.206V1.02534C139.206 1.02534 141.975 1.02534 141.975 4.40936H141.984V20.7045H141.975C141.975 24.0886 139.206 24.0886 139.206 24.0886V24.6558H149.586V24.0886C149.586 24.0886 146.817 24.0886 146.817 20.7045V14.9844H152.409L159.042 21.6179C161.321 23.8386 159.658 24.0918 159.658 24.0918V24.659H169.688V24.0918C169.688 24.0918 168.723 24.2648 165.939 21.6883V21.6819ZM146.817 13.3693V1.64702H152.13C157.443 1.64702 159.991 4.27156 159.991 7.50817C159.991 9.12647 159.353 10.591 158.052 11.6517C156.751 12.7124 154.787 13.3693 152.13 13.3693H146.817Z" fill="#505050"/>
<path d="M200.384 0.451938H200.378V0.467957L192.052 15.1032L182.794 0.451938H174.28V1.02556C174.28 1.02556 177.081 1.02555 177.081 4.45122V20.6535C177.081 24.0792 174.28 24.0792 174.28 24.0792V24.6528H181.362V24.0792C181.362 24.0792 178.584 24.0792 178.564 20.6919V2.79768L188.412 18.3911H194.126L192.937 16.5068L200.378 3.43218V20.6503H200.368C200.368 24.076 197.567 24.076 197.567 24.076V24.6496H208.075V24.076C208.075 24.076 205.274 24.076 205.274 20.6503H205.268V4.44803H205.274C205.274 1.02235 208.075 1.02235 208.075 1.02235V0.44873H200.384V0.451938Z" fill="#505050"/>
<path d="M18.4006 13.0362C17.0258 12.3151 15.4812 11.5909 13.7636 10.8603C12.0812 10.152 10.5783 9.50794 9.25478 8.92471C7.93129 8.34148 6.89301 7.71338 6.13674 7.04042C5.38046 6.36746 5.00232 5.52786 5.00232 4.52163C5.00232 3.38081 6.30978 1.48051 11.0814 1.48051C15.853 1.48051 17.8911 3.23019 18.5256 4.28129C19.1601 5.33239 19.5318 6.41873 19.6343 7.53713H20.3522C20.3522 6.05341 20.5765 0.68257 20.6085 0.269182H19.8907C19.7882 0.772298 19.66 1.15044 19.503 1.40039C19.3491 1.65355 19.0992 1.77853 18.7563 1.77853C18.516 1.77853 18.266 1.74007 18.0096 1.65996C17.7533 1.57985 17.4168 1.46128 17.0034 1.30105C16.2824 0.980595 13.927 0 10.3059 0C8.52093 0 6.84494 0.21791 5.28112 0.650526C3.71729 1.08635 2.44829 1.74649 1.46769 2.63736C0.487093 3.52823 0 4.67225 0 6.06623C0 7.32242 0.419798 8.40877 1.2626 9.32207C2.1054 10.2354 3.2302 11.0365 4.637 11.7223C6.0438 12.4081 7.55636 13.0938 9.17146 13.7796C10.7513 14.4205 12.1357 15.0422 13.3182 15.6479C14.5038 16.2535 15.43 16.9105 16.0997 17.6187C16.7695 18.3269 17.106 19.1505 17.106 20.0862C17.106 21.0924 16.1926 23.6753 10.511 23.6753C4.82927 23.6753 2.70785 21.5603 2.07335 20.3265C1.43885 19.0928 1.08314 17.7693 0.945346 16.3497H0.256365C0.256365 18.0193 0.0192274 24.9187 0.0192274 24.9187H0.714617C0.817163 24.4156 0.945346 24.0406 1.10237 23.7875C1.25619 23.5375 1.50614 23.4093 1.84903 23.4093C2.26242 23.4093 2.84565 23.5695 3.60193 23.89C4.39025 24.188 5.57273 24.4732 6.70715 24.7488C7.84156 25.0212 9.37014 25.159 11.2929 25.159C13.3887 25.159 15.3114 24.9187 17.0643 24.438C18.8172 23.9573 20.2144 23.2331 21.2655 22.2621C22.3134 21.2911 22.8357 20.0638 22.8357 18.5768C22.8357 17.3431 22.4415 16.292 21.65 15.4236C20.8585 14.5551 19.7786 13.7604 18.4038 13.0426L18.4006 13.0362Z" fill="#505050"/>
<path d="M220.958 3.66937C222.028 3.66937 222.932 3.48991 223.82 3.31366C225.406 2.99641 226.906 2.69838 229.456 3.56041C228.421 0.455187 225.22 1.24031 223.477 1.58641C221.89 1.90045 220.391 2.20168 217.84 1.33965C218.558 3.31366 219.929 3.66937 220.961 3.66937H220.958Z" fill="#505050"/>
<path d="M232.968 20.0445C232.35 20.8681 231.645 21.5122 230.857 21.9801C230.065 22.448 229.235 22.7812 228.357 22.9735C227.482 23.169 226.578 23.2651 225.652 23.2651C219.621 23.2651 218.192 18.1731 218.192 14.9044H233.898C233.898 12.2767 232.17 6.50525 224.21 6.50525C221.839 6.50525 213.302 7.34806 213.302 16.1702C213.302 24.1336 220.942 25.1494 224.108 25.1494C225.893 25.1494 227.457 24.9155 228.796 24.4476C230.136 23.9797 231.235 23.3677 232.094 22.6146C232.952 21.8615 233.587 21.0956 234 20.3169L232.968 20.0445ZM224.002 7.98896C227.732 7.98896 229.027 10.982 229.027 13.4303H218.221C218.564 11.1551 220.15 7.98896 224.002 7.98896Z" fill="#505050"/>
</svg>
