<svg width="23" height="34" viewBox="0 0 23 34" fill="none" xmlns="http://www.w3.org/2000/svg">
<path d="M22.0418 15.872L2.88461 0.402314C2.56496 0.144065 2.14029 0 1.69867 0C1.25705 0 0.83238 0.144065 0.512733 0.402314L0.492107 0.419794C0.336613 0.544988 0.212795 0.695682 0.128185 0.862711C0.0435753 1.02974 -5.72205e-05 1.20961 -5.72205e-05 1.39138C-5.72205e-05 1.57315 0.0435753 1.75302 0.128185 1.92005C0.212795 2.08708 0.336613 2.23777 0.492107 2.36297L18.5321 16.9295L0.492107 31.4902C0.336613 31.6154 0.212795 31.7661 0.128185 31.9331C0.0435753 32.1001 -5.72205e-05 32.28 -5.72205e-05 32.4618C-5.72205e-05 32.6435 0.0435753 32.8234 0.128185 32.9904C0.212795 33.1575 0.336613 33.3082 0.492107 33.4333L0.512733 33.4508C0.83238 33.7091 1.25705 33.8531 1.69867 33.8531C2.14029 33.8531 2.56496 33.7091 2.88461 33.4508L22.0418 17.9812C22.2103 17.8451 22.3444 17.6815 22.436 17.5002C22.5277 17.319 22.575 17.1238 22.575 16.9266C22.575 16.7294 22.5277 16.5342 22.436 16.3529C22.3444 16.1716 22.2103 16.008 22.0418 15.872Z" fill="#505050"/>
</svg>
