<svg width="19" height="19" viewBox="0 0 19 19" fill="none" xmlns="http://www.w3.org/2000/svg">
<g clip-path="url(#clip0_2018_17)">
<path d="M13.8998 12.9192L14.0443 12.7437C15.2936 11.1642 15.8821 9.18199 15.7066 7.17916C15.531 5.17634 14.6019 3.32837 13.0945 1.99659C11.5871 0.654494 9.64614 -0.057851 7.63288 0.0040921C5.61962 0.0660352 3.71993 0.881619 2.29516 2.30631C0.880719 3.731 0.0650911 5.63059 0.00314468 7.63341C-0.0484773 9.64656 0.653582 11.5874 1.99575 13.0844C3.3276 14.5917 5.16535 15.5208 7.16828 15.6963C9.17122 15.8718 11.1535 15.2937 12.7331 14.0548L12.919 13.9103L18.0089 19L19 18.0089L13.8998 12.9192ZM12.4028 12.403C11.1845 13.6212 9.57387 14.2923 7.84969 14.3026C7.83937 14.3026 7.82904 14.3026 7.82904 14.3026C6.11519 14.3026 4.50459 13.6419 3.28631 12.4546C2.66684 11.8455 2.19192 11.1435 1.86154 10.3486C1.52083 9.55365 1.35564 8.71742 1.34532 7.86054C1.34532 7.00366 1.51051 6.16743 1.83056 5.37249C2.16095 4.57755 2.63587 3.86521 3.24501 3.2561C3.85415 2.647 4.56653 2.1721 5.36151 1.85206C6.15649 1.5217 7.00309 1.36684 7.84969 1.35652C8.71694 1.36684 9.55322 1.53202 10.3379 1.87271C11.1329 2.20307 11.8349 2.68829 12.4441 3.2974C13.652 4.52594 14.3024 6.14678 14.3024 7.86054C14.2921 9.57429 13.621 11.1951 12.4028 12.403Z" fill="#505050"/>
</g>
<defs>
<clipPath id="clip0_2018_17">
<rect width="19" height="19" fill="white"/>
</clipPath>
</defs>
</svg>
