<svg width="14" height="14" viewBox="0 0 14 14" fill="none" xmlns="http://www.w3.org/2000/svg">
<path d="M10.8347 6.62617L4.89447 1.14261C4.79535 1.05107 4.66367 1 4.52674 1C4.3898 1 4.25812 1.05107 4.159 1.14261L4.15261 1.14881C4.10439 1.19318 4.066 1.2466 4.03977 1.30581C4.01353 1.36501 4 1.42877 4 1.49321C4 1.55764 4.01353 1.6214 4.03977 1.6806C4.066 1.73981 4.10439 1.79323 4.15261 1.83761L9.74641 7.00103L4.15261 12.1624C4.10439 12.2068 4.066 12.2602 4.03977 12.3194C4.01353 12.3786 4 12.4424 4 12.5068C4 12.5712 4.01353 12.635 4.03977 12.6942C4.066 12.7534 4.10439 12.8068 4.15261 12.8512L4.159 12.8574C4.25812 12.9489 4.3898 13 4.52674 13C4.66367 13 4.79535 12.9489 4.89447 12.8574L10.8347 7.37383C10.8869 7.32561 10.9285 7.26761 10.9569 7.20335C10.9853 7.13909 11 7.06991 11 7C11 6.93009 10.9853 6.86091 10.9569 6.79665C10.9285 6.73239 10.8869 6.67439 10.8347 6.62617Z" fill="#505050"/>
</svg>
